<mxfile host="65bd71144e">
    <diagram id="TxnL7NMYBrK-qWNxaeqL" name="Page-1">
        <mxGraphModel dx="648" dy="520" grid="1" gridSize="10" guides="1" tooltips="1" connect="1" arrows="1" fold="1" page="1" pageScale="1" pageWidth="850" pageHeight="1100" math="0" shadow="0">
            <root>
                <mxCell id="0"/>
                <mxCell id="1" parent="0"/>
                <mxCell id="2" value="App" style="ellipse" vertex="1" parent="1">
                    <mxGeometry x="345" y="90" width="80" height="30" as="geometry"/>
                </mxCell>
                <mxCell id="3" value="Acct Container" style="rounded=1;" vertex="1" parent="1">
                    <mxGeometry x="160" y="250" width="100" height="30" as="geometry"/>
                </mxCell>
                <mxCell id="4" value="" style="curved=1;noEdgeStyle=1;orthogonal=1;" edge="1" source="2" target="3" parent="1">
                    <mxGeometry relative="1" as="geometry">
                        <Array as="points">
                            <mxPoint x="210" y="238"/>
                        </Array>
                    </mxGeometry>
                </mxCell>
                <mxCell id="19" style="edgeStyle=none;html=1;exitX=0.25;exitY=1;exitDx=0;exitDy=0;entryX=0.25;entryY=0;entryDx=0;entryDy=0;" edge="1" parent="1" source="7" target="18">
                    <mxGeometry relative="1" as="geometry"/>
                </mxCell>
                <mxCell id="7" value="Add Form" style="rounded=1;" vertex="1" parent="1">
                    <mxGeometry x="290" y="250" width="80" height="30" as="geometry"/>
                </mxCell>
                <mxCell id="8" value="" style="curved=1;noEdgeStyle=1;orthogonal=1;" edge="1" source="2" target="7" parent="1">
                    <mxGeometry relative="1" as="geometry">
                        <Array as="points">
                            <mxPoint x="330" y="238"/>
                        </Array>
                    </mxGeometry>
                </mxCell>
                <mxCell id="9" value="Transaction List" style="rounded=1;" vertex="1" parent="1">
                    <mxGeometry x="402.1328125" y="250" width="110" height="30" as="geometry"/>
                </mxCell>
                <mxCell id="10" value="" style="curved=1;noEdgeStyle=1;orthogonal=1;exitX=0.5;exitY=1;exitDx=0;exitDy=0;" edge="1" source="2" target="9" parent="1">
                    <mxGeometry relative="1" as="geometry">
                        <Array as="points">
                            <mxPoint x="457.1328125" y="238"/>
                        </Array>
                    </mxGeometry>
                </mxCell>
                <mxCell id="11" value="Search" style="rounded=1;" vertex="1" parent="1">
                    <mxGeometry x="540.0028125" y="250" width="110" height="30" as="geometry"/>
                </mxCell>
                <mxCell id="12" value="" style="curved=1;noEdgeStyle=1;orthogonal=1;exitX=1;exitY=1;exitDx=0;exitDy=0;" edge="1" parent="1" target="11" source="2">
                    <mxGeometry relative="1" as="geometry">
                        <mxPoint x="480.0033333333334" y="157.1834929310112" as="sourcePoint"/>
                        <Array as="points">
                            <mxPoint x="583.8028125" y="248"/>
                        </Array>
                    </mxGeometry>
                </mxCell>
                <mxCell id="14" style="edgeStyle=none;html=1;exitX=0.75;exitY=0;exitDx=0;exitDy=0;entryX=0.362;entryY=1;entryDx=0;entryDy=0;entryPerimeter=0;" edge="1" parent="1" source="13" target="9">
                    <mxGeometry relative="1" as="geometry">
                        <mxPoint x="220" y="300" as="targetPoint"/>
                    </mxGeometry>
                </mxCell>
                <mxCell id="13" value="Holds Data" style="text;strokeColor=none;align=center;fillColor=none;html=1;verticalAlign=middle;whiteSpace=wrap;rounded=0;" vertex="1" parent="1">
                    <mxGeometry x="170" y="320" width="80" height="30" as="geometry"/>
                </mxCell>
                <mxCell id="16" style="edgeStyle=none;html=1;exitX=0;exitY=1;exitDx=0;exitDy=0;" edge="1" parent="1" source="15">
                    <mxGeometry relative="1" as="geometry">
                        <mxPoint x="250" y="350" as="targetPoint"/>
                    </mxGeometry>
                </mxCell>
                <mxCell id="15" value="Holds Search Val" style="text;strokeColor=none;align=center;fillColor=none;html=1;verticalAlign=middle;whiteSpace=wrap;rounded=0;" vertex="1" parent="1">
                    <mxGeometry x="565" y="310" width="60" height="30" as="geometry"/>
                </mxCell>
                <mxCell id="17" value="Filters all data" style="text;strokeColor=none;align=center;fillColor=none;html=1;verticalAlign=middle;whiteSpace=wrap;rounded=0;" vertex="1" parent="1">
                    <mxGeometry x="395" y="350" width="95" height="30" as="geometry"/>
                </mxCell>
                <mxCell id="20" style="edgeStyle=none;html=1;exitX=0;exitY=0.25;exitDx=0;exitDy=0;" edge="1" parent="1" source="18" target="13">
                    <mxGeometry relative="1" as="geometry"/>
                </mxCell>
                <mxCell id="18" value="Adds new data" style="text;strokeColor=none;align=center;fillColor=none;html=1;verticalAlign=middle;whiteSpace=wrap;rounded=0;" vertex="1" parent="1">
                    <mxGeometry x="285" y="380" width="90" height="30" as="geometry"/>
                </mxCell>
            </root>
        </mxGraphModel>
    </diagram>
</mxfile>